<?xml version="1.0" encoding="UTF-8" standalone="no"?>
<svg
   xmlns:dc="http://purl.org/dc/elements/1.1/"
   xmlns:cc="http://creativecommons.org/ns#"
   xmlns:rdf="http://www.w3.org/1999/02/22-rdf-syntax-ns#"
   xmlns:svg="http://www.w3.org/2000/svg"
   xmlns="http://www.w3.org/2000/svg"
   xmlns:sodipodi="http://sodipodi.sourceforge.net/DTD/sodipodi-0.dtd"
   xmlns:inkscape="http://www.inkscape.org/namespaces/inkscape"
   version="1.1"
   width="48"
   height="48"
   viewBox="0 0 48 48"
   id="svg2"
   inkscape:version="0.91 r13725"
   sodipodi:docname="deconnexion.svg">
  <sodipodi:namedview
     pagecolor="#ffffff"
     bordercolor="#666666"
     borderopacity="1"
     objecttolerance="10"
     gridtolerance="10"
     guidetolerance="10"
     inkscape:pageopacity="0"
     inkscape:pageshadow="2"
     inkscape:window-width="640"
     inkscape:window-height="480"
     id="namedview6"
     showgrid="false"
     inkscape:zoom="4.9166667"
     inkscape:cx="24"
     inkscape:cy="24"
     inkscape:window-x="0"
     inkscape:window-y="0"
     inkscape:window-maximized="0"
     inkscape:current-layer="svg2" />
  <metadata
     id="metadata10">
    <rdf:RDF>
      <cc:Work
         rdf:about="">
        <dc:format>image/svg+xml</dc:format>
        <dc:type
           rdf:resource="http://purl.org/dc/dcmitype/StillImage" />
        <dc:title />
      </cc:Work>
    </rdf:RDF>
  </metadata>
  <defs
     id="defs8" />
  <path
     id="path5358"
     d="m 24.002767,4.915254 c -0.980721,0 -1.773698,0.7384756 -1.773698,1.6448533 l 0,11.9677317 c 0,0.908621 0.792977,1.644854 1.773698,1.644854 0.975889,0 1.770931,-0.736233 1.770931,-1.644854 l 0,-11.9677317 c 0,-0.9063777 -0.795042,-1.6448533 -1.770931,-1.6448533 z m -5.417942,5.115523 c -0.229669,-0.01385 -0.468178,0.01398 -0.700072,0.08912 -7.466523,2.416268 -12.4850675,8.968196 -12.4850675,16.299995 0,9.528197 8.3417465,17.275019 18.6030815,17.275019 10.254087,0 18.597548,-7.746822 18.597548,-17.275019 0,-7.331799 -5.021312,-13.883727 -12.487835,-16.299989 -0.929994,-0.2983874 -1.9339,0.155818 -2.255171,1.012842 -0.321268,0.859266 0.165069,1.797518 1.090231,2.095905 6.050999,1.956344 10.110911,7.257153 10.110911,13.191242 0,7.713196 -6.758208,13.985311 -15.055684,13.985311 -8.30714,0 -15.061219,-6.272115 -15.061219,-13.985311 0,-5.93409 4.064393,-11.234898 10.108146,-13.191242 0.922746,-0.298387 1.413916,-1.236639 1.090229,-2.095905 -0.240952,-0.642768 -0.866096,-1.060537 -1.555098,-1.101972 z"
     style="display:inline;fill:#292929;fill-opacity:1;fill-rule:nonzero;stroke:none"
     inkscape:connector-curvature="0" />
</svg>
